<svg width="93" height="92" viewBox="0 0 93 92" fill="none" xmlns="http://www.w3.org/2000/svg">
<path d="M92.329 69.7695L68.3885 45.829L92.329 21.8885L92.158 0L70.4406 0.171004L46.5001 24.1115L22.5595 0.171004L0.5 0.342007L0.671014 22.0595L24.6115 46L0.671014 69.9405L0.842028 92L22.5595 91.829L46.5001 67.8885L70.4406 91.829L92.5 91.658L92.329 69.7695ZM51.8011 40.6989L48.0391 26.6766L65.8234 44.461L51.8011 40.6989ZM25.8086 46L46.5001 25.3086L46.842 25.6506L50.9461 40.8699L41.3699 50.4461L26.1505 46.342L25.8086 46ZM27.3476 47.368L41.3699 51.1301L45.132 65.1524L27.3476 47.368ZM46.158 66.1784L42.0539 50.9591L51.6301 41.3829L66.8495 45.487L67.1914 45.829L46.5001 66.6915L46.158 66.1784Z" fill="#001647"/>
</svg>
